<svg width="24" height="24" viewBox="0 0 24 24" fill="none" xmlns="http://www.w3.org/2000/svg">
<path d="M9.58008 1.93066C11.0155 0.882661 13.1607 0.929012 14.5557 2.04492L21.4863 7.58496C22.0181 8.01361 22.4367 8.64906 22.6963 9.33203C22.9559 10.015 23.0653 10.7675 22.957 11.4395L22.9561 11.4414L21.626 19.4014C21.3057 21.2912 19.512 22.8096 17.5996 22.8096H6.39941C4.4579 22.8094 2.69336 21.322 2.37305 19.4014L1.04297 11.4414C0.929114 10.7688 1.03613 10.0155 1.2959 9.33203C1.55571 8.64846 1.97656 8.01259 2.51367 7.58398L9.44336 2.03516L9.58008 1.93066ZM11.9902 3.18945C11.5065 3.18945 11.0337 3.33648 10.6953 3.60547L3.7666 9.15527L3.76562 9.1543C3.52486 9.34889 3.30796 9.67761 3.16504 10.0518C3.02204 10.4261 2.96613 10.8145 3.0166 11.1182L4.34668 19.0771L4.38477 19.25C4.62339 20.1048 5.51083 20.8093 6.39941 20.8096H17.5996C18.5467 20.8096 19.4934 20.0088 19.6533 19.0684L20.9834 11.1084C21.0338 10.8055 20.9756 10.4146 20.8311 10.0381C20.6864 9.6615 20.4687 9.33362 20.2334 9.14453L13.3037 3.60547V3.60449C12.9545 3.33525 12.4821 3.18953 11.9902 3.18945Z" fill="#EA526F" stroke="#EA526F" stroke-width="0.5"/>
<path d="M12 9.5C13.9281 9.5 15.5 11.0719 15.5 13C15.5 14.9281 13.9281 16.5 12 16.5C10.0719 16.5 8.5 14.9281 8.5 13C8.5 11.0719 10.0719 9.5 12 9.5ZM12 11.5C11.1781 11.5 10.5 12.1781 10.5 13C10.5 13.8219 11.1781 14.5 12 14.5C12.8219 14.5 13.5 13.8219 13.5 13C13.5 12.1781 12.8219 11.5 12 11.5Z" fill="#EA526F" stroke="#EA526F" stroke-width="0.5"/>
</svg>
